<svg id="espalda" xmlns="http://www.w3.org/2000/svg" xmlns:xlink="http://www.w3.org/1999/xlink" width="20" height="18" viewBox="0 0 20 18">
  <defs>
    <linearGradient id="linear-gradient" x1="-0.359" y1="0.5" x2="1" y2="0.5" gradientUnits="objectBoundingBox">
      <stop offset="0" stop-color="#aad95f"/>
      <stop offset="1" stop-color="#aad95f"/>
    </linearGradient>
  </defs>
  <g id="Grupo_161" data-name="Grupo 161" transform="translate(0 0)">
    <path id="Trazado_121" data-name="Trazado 121" d="M1.124,48.975l-.031.007H14.476l-4.207-4.569a1.27,1.27,0,0,1,0-1.683l.655-.71a1.036,1.036,0,0,1,1.546,0l7.212,7.814a1.267,1.267,0,0,1,0,1.681l-7.212,7.815a1.037,1.037,0,0,1-1.546,0l-.655-.71a1.226,1.226,0,0,1-.319-.837,1.187,1.187,0,0,1,.319-.822l4.255-4.594H1.109A1.185,1.185,0,0,1,0,51.15v-1A1.157,1.157,0,0,1,1.124,48.975Z" transform="translate(0 -41.674)" fill="url(#linear-gradient)"/>
  </g>
</svg>
